<?xml version="1.0" standalone="no"?>
<!DOCTYPE svg PUBLIC "-//W3C//DTD SVG 20010904//EN"
 "http://www.w3.org/TR/2001/REC-SVG-20010904/DTD/svg10.dtd">
<svg version="1.0" xmlns="http://www.w3.org/2000/svg"
 width="700.000000pt" height="700.000000pt" viewBox="0 0 700.000000 700.000000"
 preserveAspectRatio="xMidYMid meet">
<metadata>
Created by potrace 1.11, written by Peter Selinger 2001-2013
</metadata>
<g transform="translate(0.000000,700.000000) scale(0.100000,-0.100000)"
fill="#000000" stroke="none">
<path d="M4798 6995 c-2 -1 -38 -5 -81 -9 -377 -32 -782 -200 -1092 -453 -118
-96 -1159 -1142 -1228 -1234 -31 -41 -57 -78 -57 -81 0 -4 15 -2 32 3 18 5 58
14 88 19 30 6 66 12 80 15 14 3 43 8 65 11 22 3 69 9 105 14 68 9 467 6 508
-4 13 -3 50 -8 82 -11 33 -3 122 -21 199 -39 l140 -32 323 321 c217 215 346
336 393 367 186 122 378 185 583 191 632 21 1152 -493 1136 -1121 -6 -211 -70
-410 -193 -597 -67 -102 -1149 -1185 -1246 -1248 -193 -123 -368 -177 -593
-181 -241 -5 -497 79 -682 223 -188 147 -343 381 -400 605 -21 84 -19 83 -155
48 -191 -48 -273 -103 -504 -337 l-165 -165 13 -38 c34 -96 203 -401 240 -432
3 -3 26 -32 51 -65 110 -149 337 -361 495 -463 116 -76 385 -211 385 -195 0 3
6 1 13 -5 13 -11 226 -79 292 -93 45 -10 148 -26 221 -35 107 -12 393 -7 480
10 12 3 39 7 60 10 158 24 369 91 543 172 51 24 95 44 98 44 16 0 252 165 328
230 81 68 1129 1124 1178 1186 86 110 170 241 225 349 67 135 93 196 127 301
48 144 77 281 93 429 14 134 6 449 -13 544 -79 390 -185 638 -389 911 -86 116
-291 324 -406 411 -238 182 -514 314 -780 373 -66 15 -81 18 -205 37 -61 9
-379 21 -387 14z"/>
<path d="M2818 5015 c-2 -2 -37 -6 -79 -9 -41 -3 -82 -7 -90 -10 -8 -3 -32 -7
-54 -10 -141 -18 -392 -99 -545 -176 -33 -17 -60 -28 -60 -25 0 19 -248 -144
-353 -233 -73 -61 -1097 -1089 -1156 -1160 -299 -360 -468 -816 -475 -1278 -7
-447 113 -845 365 -1214 32 -47 66 -94 76 -105 10 -11 29 -33 41 -50 101 -131
324 -325 494 -431 466 -289 1028 -380 1568 -253 278 65 578 211 814 397 103
80 1138 1117 1221 1221 77 98 87 116 59 107 -25 -8 -199 -43 -244 -50 -216
-31 -534 -28 -725 5 -101 18 -107 20 -210 44 l-100 24 -38 -37 c-21 -20 -163
-161 -315 -313 -294 -292 -367 -352 -519 -425 -139 -67 -252 -94 -415 -101
-177 -8 -255 4 -423 60 -302 101 -564 368 -670 682 -85 254 -71 551 38 795 82
182 102 205 682 787 318 320 572 567 619 602 44 33 116 78 160 100 78 39 226
95 226 85 0 -3 8 -1 18 4 30 16 122 26 257 26 144 1 250 -19 400 -77 222 -85
420 -259 547 -482 46 -80 104 -223 119 -293 8 -41 14 -52 27 -48 10 2 33 7 52
10 62 11 74 14 137 35 147 49 227 109 450 333 l153 153 -44 97 c-210 466 -566
823 -1036 1036 -65 30 -211 81 -285 100 -22 6 -65 17 -95 26 -30 8 -75 18
-100 22 -25 3 -52 8 -60 9 -67 12 -137 17 -272 20 -86 1 -158 1 -160 0z"/>
</g>
</svg>
